<?xml version="1.0" encoding="UTF-8"?>
<svg id="logo-pin" width="640" height="152" viewBox="0 0 640 152" xmlns="http://www.w3.org/2000/svg" role="img" aria-label="BudEvent map pin logo">
  <defs>
    <linearGradient id="g4" x1="0" x2="1">
      <stop offset="0" stop-color="#06b6d4" />
      <stop offset="1" stop-color="#3b82f6" />
    </linearGradient>
    <style>
      .p0{font-family:Inter, system-ui, -apple-system, 'Segoe UI', Roboto, Helvetica, Arial; font-weight:700; font-size:68px; fill:#ffffff;}
      .p1{font-family:Inter, system-ui, -apple-system, 'Segoe UI', Roboto, Helvetica, Arial; font-weight:600; font-size:68px; fill:url(#g4);}
    </style>
  </defs>
  <g transform="translate(12,12)">
    <path d="M60 6c18 0 32 14 32 32 0 18-14 32-32 32s-32-14-32-32c0-18 14-32 32-32z" fill="#0b1220" />
    <path d="M60 0c22 0 40 18 40 40 0 22-40 68-40 68S20 62 20 40C20 18 38 0 60 0z" fill="url(#g4)" />
    <circle cx="60" cy="40" r="12" fill="#fff" opacity="0.95" />
  </g>
  <text x="150" y="96" class="p1">Bud</text>
  <text x="285" y="96" class="p0">Event</text>
</svg>
